<svg id="グループ_23" data-name="グループ 23" xmlns="http://www.w3.org/2000/svg" xmlns:xlink="http://www.w3.org/1999/xlink" width="22.729" height="30" viewBox="0 0 22.729 30">
  <defs>
    <clipPath id="clip-path">
      <rect id="長方形_49" data-name="長方形 49" width="22.729" height="30" fill="#fff"/>
    </clipPath>
  </defs>
  <g id="グループ_22" data-name="グループ 22" clip-path="url(#clip-path)">
    <path id="パス_9" data-name="パス 9" d="M22.726,26.78c-.025-.413-.261-3.933-1.066-5.09-.559-.8-2-1.095-3.674-1.432a13.991,13.991,0,0,1-2.7-.715,4.767,4.767,0,0,1-.5-2.011v-.025c0-.16,0-.4.1-.487a6.49,6.49,0,0,0,2.436-3.948,4.244,4.244,0,0,0,1.151-.852,2.819,2.819,0,0,0,.745-2.51,1.844,1.844,0,0,0-.934-1.449,1.375,1.375,0,0,0-.23-.085l-.45-5.368a1.935,1.935,0,0,0-1.037-1.642,12.2,12.2,0,0,0-10.416,0A1.935,1.935,0,0,0,5.12,2.808L4.67,8.176a1.374,1.374,0,0,0-.23.085,1.844,1.844,0,0,0-.934,1.449,2.819,2.819,0,0,0,.745,2.51,4.243,4.243,0,0,0,1.151.852,6.489,6.489,0,0,0,2.436,3.948c.106.085.105.327.1.487v.025a4.767,4.767,0,0,1-.5,2.011,13.992,13.992,0,0,1-2.7.715c-1.671.337-3.115.628-3.674,1.432C.265,22.847.028,26.368,0,26.78a1.351,1.351,0,0,0,.4,1.03C1.775,29.283,6.891,29.971,11.178,30h.372c4.287-.028,9.4-.716,10.773-2.188a1.351,1.351,0,0,0,.4-1.03M16.445,7.669l-.6,1.5a12.42,12.42,0,0,0-8.952,0l-.6-1.5a11.249,11.249,0,0,1,10.161,0M8.5,26.3l-2.367.848L3.77,26.3V24.874H8.5Zm2.477,2.663V24.027l-2.929-3.6a2.577,2.577,0,0,0,.79-1.635,9.718,9.718,0,0,0,.175-1.238v-.041a1.585,1.585,0,0,0-.509-1.332,5.365,5.365,0,0,1-2.082-3.532.537.537,0,0,0-.321-.431A2.2,2.2,0,0,1,4.563,9.9c.065-.359.187-.6.344-.674a.807.807,0,0,1,.649.1.534.534,0,0,0,.109.043l.328.817a.606.606,0,0,0,.81.328,11.2,11.2,0,0,1,9.125,0,.606.606,0,0,0,.81-.328l.328-.817a.535.535,0,0,0,.109-.043.808.808,0,0,1,.649-.1c.157.076.279.315.344.674a2.2,2.2,0,0,1-1.542,2.316.537.537,0,0,0-.321.431,5.364,5.364,0,0,1-2.082,3.532,1.585,1.585,0,0,0-.509,1.331v.042a9.72,9.72,0,0,0,.175,1.237,2.575,2.575,0,0,0,.791,1.636l-2.931,3.6v4.938ZM18.96,26.3l-2.367.848L14.226,26.3V24.874H18.96Z" transform="translate(0 0)" fill="#fff"/>
  </g>
</svg>
