<svg xmlns="http://www.w3.org/2000/svg" xmlns:xlink="http://www.w3.org/1999/xlink" width="90" height="90" viewBox="0 0 90 90">
  <defs>
    <clipPath id="clip-path">
      <rect id="長方形_1" data-name="長方形 1" width="80" height="76.482" fill="none"/>
    </clipPath>
  </defs>
  <g id="グループ_21" data-name="グループ 21" transform="translate(-20 -20)">
    <rect id="長方形_4" data-name="長方形 4" width="90" height="90" transform="translate(20 20)" fill="#fff"/>
    <g id="グループ_2" data-name="グループ 2" transform="translate(25 26.759)">
      <g id="グループ_1" data-name="グループ 1" clip-path="url(#clip-path)">
        <path id="パス_1" data-name="パス 1" d="M36.3,88.319a2.074,2.074,0,0,1-2.071-1.972l-.053-1.067c-3.471,2.766-8.146,4.163-13.968,4.163A65.681,65.681,0,0,1,7.077,87.8a2.073,2.073,0,0,1-1.641-1.855L4.551,75.477a2.074,2.074,0,0,1,2.938-2.056,27.739,27.739,0,0,0,10.5,2.524c2.087,0,3.153-.472,3.468-.905a2.617,2.617,0,0,0-.551-1.476L14.668,68.08H0v36.141H37.784V88.312l-1.469.008H36.3" transform="translate(0 -27.74)" fill="#4468aa"/>
        <path id="パス_2" data-name="パス 2" d="M102.028,85.369a2.074,2.074,0,0,1-1.9,2.908L85.943,88.3h0a2.074,2.074,0,0,1-1.982-1.465c-2.04-6.635-4.2-12.885-6.322-18.752h-.014l-.587,18.183a2.074,2.074,0,0,1-2.062,2.007l-3.728.019v15.932h37.785V68.08H95.621c-.322.153-.651.3-.99.436Z" transform="translate(-29.03 -27.74)" fill="#de0716"/>
        <path id="パス_3" data-name="パス 3" d="M1.185,34.956V1.185H36.6V13.2l1.185-.006V0H0V36.141H9.981a13.2,13.2,0,0,1-1-1.185Z" fill="#e38227"/>
        <path id="パス_4" data-name="パス 4" d="M85.628,51.191a7.109,7.109,0,0,0,4.822-1.4,3.459,3.459,0,0,0,.859-3.195,3.442,3.442,0,0,0-2.38-1.331l-6.311-.047-.185,5.738c.044,0,.089.007.133.012a24.687,24.687,0,0,0,3.063.223" transform="translate(-33.588 -18.425)" fill="#e38227"/>
        <path id="パス_5" data-name="パス 5" d="M79.094,13.141c5.317,0,11.392.144,16.172,1.865,5.78,2.081,8.714,6.125,8.72,12.02a14.45,14.45,0,0,1-3.005,9.115h8.05V0H71.246V13.176l5.442-.027c.792,0,1.6-.008,2.406-.008" transform="translate(-29.03)" fill="#e38227"/>
        <path id="パス_6" data-name="パス 6" d="M77.433,37.491c-.011-11.1-11.979-11.813-22.819-11.813-.813,0-1.621,0-2.415.008l-25.31.124c-6.433.031-12.849,3.858-13.726,10.327a10.857,10.857,0,0,0,3.6,9.75l10.058,8.841c.93.817,1.606,2.915,1.055,3.941-.8,1.481-2.829,2.072-5.341,2.072a29.745,29.745,0,0,1-11.373-2.716L12.052,68.5a63.4,63.4,0,0,0,12.711,1.6c6.327,0,12.224-1.67,15.794-7.168l.3,6.044,9.628-.049,1.088-33.752,8.334.062c1.728.013,3.988,1.452,4.361,2.847a5.5,5.5,0,0,1-1.513,5.334A9.191,9.191,0,0,1,56.59,45.3a27.09,27.09,0,0,1-3.319-.238c3.024,8.226,5.69,15.752,8.189,23.882l14.188-.021L67.337,49.986c6.4-1.682,10.1-6.232,10.1-12.495M34.4,46.454l-6.53-5.227A5.124,5.124,0,0,1,26.648,37.9c.325-2.274,3.669-2.759,7.571-2.759,2.146,0,4.46.147,6.534.223l-.121,17Z" transform="translate(-4.55 -10.463)" fill="#e38227"/>
      </g>
    </g>
  </g>
</svg>
